<svg version="1.1" viewBox="0 0 48 48" xml:space="preserve" xmlns="http://www.w3.org/2000/svg"><g transform="translate(-.31372 .29023)"><g><path d="m12.121 27.797s-1.1103 4.5485 1.361 4.8709c2.4712 0.32234 2.2205-2.7936 2.1847-3.2234-0.03582-0.42978-0.68049-2.0415-0.68049-2.0415z" fill="#fe2e57"/><path d="m29.072 13.53s0.35455-10.383-4.0014-12.359c-4.3559-1.9754-6.6352 0.96235-7.3443 2.0767s-1.165 3.191-1.165 3.191-1.5702-2.7858-4.5585-1.1143c-2.9884 1.6715-3.1403 4.7105-3.0897 5.6222 0.05066 0.9117 1.4182 2.5832 1.4182 2.5832s-3.2416 1.3169-3.3936 5.0144 6.1287 1.4689 6.1287 1.4689l11.295-6.2806z" fill="#fe2e57"/><path d="m23.428 12.06c-7.532 0.01673-12.235 8.1194-12.235 10.733l1.4251 1.2587c0.13898 1.4265 0.70091 3.9765 2.8333 6.2839 0.34558 0.62464 0.60745 1.1337 0.6173 1.2756 0.19031 2.7393-0.75666 8.9091-1.5553 14.19-0.01173 0.07788-0.03911 1.0282-0.05305 1.1143l5.0256-2.6686 4.1086 2.6686 4.2315-2.6686 4.6031 2.6686 4.3811-2.6686 5.3023 2.6686s-3.154-8.0389-4.1635-10.846c-1.7191-4.7797-3.0048-9.9883-3.6313-13.117 0.0012-6.015-4.8745-10.892-10.89-10.892z" fill="#da774e"/><path d="m9.0218 27.521s0.82375 1.6833 2.5787 1.9698c1.7549 0.28652 2.722-0.64467 2.722-0.64467l-0.03582-1.1103z" fill="#ffa92f"/><path d="m11.135 22.256s-1.6117 0.57304-2.8652 2.1131c-1.2535 1.5401-1.7549 2.8652-1.7549 2.8652s3.1517 0.53723 4.0113 0.53723c0.85956 0 3.7964 0.14326 3.7964 0.14326s0.32234-1.6475-1.3968-3.7964c-1.7191-2.1489-1.7908-1.8624-1.7908-1.8624z" fill="#ffb853"/><path d="m31.065 31.702a1.6208 0.86105 60 0 0-0.22184 0.06269 1.6208 0.86105 60 0 0 0.0651 1.835 1.6208 0.86105 60 0 0 1.5553 0.97176 1.6208 0.86105 60 0 0-0.06511-1.8326 1.6208 0.86105 60 0 0-1.3335-1.0369zm-10.583 1.0634a0.86105 1.6208 15 0 0-1.1381 1.3576 0.86105 1.6208 15 0 0 0.41234 1.7892 0.86105 1.6208 15 0 0 1.2515-1.3431 0.86105 1.6208 15 0 0-0.41234-1.7868 0.86105 1.6208 15 0 0-0.11334-0.01688zm6.0428 1.2033a0.86105 1.6208 0 0 0-0.86084 1.6204 0.86105 1.6208 0 0 0 0.86084 1.6204 0.86105 1.6208 0 0 0 0.86084-1.6204 0.86105 1.6208 0 0 0-0.86084-1.6204zm8.934 3.4651a1.6208 0.86105 60 0 0-0.22184 0.06269 1.6208 0.86105 60 0 0 0.0651 1.835 1.6208 0.86105 60 0 0 1.5553 0.97176 1.6208 0.86105 60 0 0-0.0651-1.8326 1.6208 0.86105 60 0 0-1.3335-1.0369zm-16.865 1.5215a0.86105 1.6208 16.976 0 0-1.1864 1.319 0.86105 1.6208 16.976 0 0 0.35205 1.8013 0.86105 1.6208 16.976 0 0 1.2949-1.2997 0.86105 1.6208 16.976 0 0-0.34964-1.8013 0.86105 1.6208 16.976 0 0-0.11092-0.01928zm11.456 0.24595a1.6208 0.86105 75 0 0-0.11092 0.01688 1.6208 0.86105 75 0 0-0.41234 1.7892 1.6208 0.86105 75 0 0 1.2515 1.3407 1.6208 0.86105 75 0 0 0.41234-1.7868 1.6208 0.86105 75 0 0-1.1406-1.36zm-6.3973 0.28213a0.86105 1.6208 15 0 0-1.1381 1.3576 0.86105 1.6208 15 0 0 0.41234 1.7892 0.86105 1.6208 15 0 0 1.2515-1.3431 0.86105 1.6208 15 0 0-0.41234-1.7892 0.86105 1.6208 15 0 0-0.11334-0.01447z" fill="#ffb380" opacity=".73578"/></g><path d="m15.121 22.281a5.1216 5.1216 0 0 0 5.1048 4.8974 5.1216 5.1216 0 0 0 5.1072-4.8974z" fill="#fff"/><path d="m15.121 22.281h10.212a5.1216 5.1216 0 0 0 0.01447-0.22425 5.1216 5.1216 0 0 0-5.1217-5.1217 5.1216 5.1216 0 0 0-5.1217 5.1217 5.1216 5.1216 0 0 0 0.01688 0.22425z" fill="#fff"/><ellipse cx="27.948" cy="26.839" rx="2.5071" ry="1.0386" fill="#f74f7b"/><path d="m18.75 14.898a0.53217 1.5326 60 0 0-1.2081 0.43163 0.53217 1.5326 60 0 0-1.061 1.2274 0.53217 1.5326 60 0 0 1.5939-0.30624 0.53217 1.5326 60 0 0 1.061-1.2274 0.53217 1.5326 60 0 0-0.38581-0.12539zm5.0662 4.8395a0.66258 1.0924 0 0 0-0.66312 1.0923 0.66258 1.0924 0 0 0 0.66312 1.0923 0.66258 1.0924 0 0 0 0.66311-1.0923 0.66258 1.0924 0 0 0-0.66311-1.0923z" fill="#552536"/><g transform="translate(-.58019 1.6245)"><path d="m36.978 6.6608c-0.72236 0.0019-1.5867 0.51124-2.6573 1.5818-1.713 1.713-2.6029 4.5394-1.9725 5.1699 0.63046 0.63046 2.9747-0.74419 4.6876-2.4571 1.713-1.713 2.0204-2.8293 1.1044-3.7617-0.34692-0.35313-0.72884-0.53402-1.1623-0.5329zm-10.484 0.27007c-0.42326-0.01031-0.79814 0.16046-1.1478 0.50397-0.94168 0.92512-0.66644 2.1066 1.0465 3.8195 1.713 1.713 4.5394 2.6029 5.1699 1.9725 0.63046-0.63046-0.74178-2.9723-2.4547-4.6852-1.0706-1.0706-1.9085-1.5936-2.6139-1.6108zm4.8588 6.689c-0.96724 0.0508-2.7774 1.2197-4.1692 2.6115-1.713 1.713-2.0204 2.8293-1.1044 3.7617 0.92512 0.94168 2.1066 0.66403 3.8195-1.0489 0.97825-0.97825 1.6873-2.319 1.999-3.4072 0.46268 0.92834 1.2928 2.0475 2.2257 2.9804 1.713 1.713 2.8293 2.0204 3.7617 1.1044 0.94168-0.92512 0.66403-2.1066-1.0489-3.8195-1.6029-1.6029-4.1816-2.4859-5.0228-2.0762-0.11544-0.08211-0.27148-0.11603-0.46056-0.1061z" fill="#ff59e3" stroke-linecap="round" stroke-linejoin="round" stroke-width="1.575"/><path d="m31.687 5.1393c-1.32-0.011704-1.958 1.0185-1.958 3.441 0 1.5938 0.59215 3.2767 1.2515 4.2415-0.97776-0.43216-2.6026-0.71134-4.1451-0.71134-2.4225 0-3.4294 0.57139-3.441 1.8784-0.01173 1.32 1.0185 1.958 3.441 1.958 1.3053 0 2.6693-0.39574 3.6507-0.90184-0.33128 0.98425-0.53532 2.3679-0.53532 3.6917 0 2.4225 0.57139 3.4294 1.8784 3.441 1.32 0.01173 1.958-1.0185 1.958-3.441 0-1.5589-0.5663-3.2023-1.2081-4.1764 0.93785 0.49377 2.7034 0.81744 4.3717 0.81744 2.4225 0 3.4318-0.57139 3.4434-1.8784 0.01173-1.32-1.0209-1.958-3.4434-1.958-1.5081 0-3.0937 0.52976-4.0776 1.1454 0.42233-0.98164 0.69205-2.5846 0.69205-4.1065 0-2.4225-0.57139-3.4294-1.8784-3.441zm0.19291 8.4782c0.0172 0.0038 0.03373 0.0075 0.05064 0.0096v0.0025c-0.01984 0.059-0.02894 0.11547-0.02894 0.1712 0 0.0065 0.0021 0.01274 0.0025 0.0193-0.01049-0.0069-0.02093-0.01531-0.03135-0.02171 0.0085-0.03783 0.01447-0.07456 0.01447-0.11092 0-0.0238-0.0036-0.04643-0.0073-0.06993z" fill="#ff6ee6" stroke-linecap="round" stroke-linejoin="round" stroke-width="1.575"/><circle cx="31.636" cy="13.961" r="1.6475" fill="#ffe274"/></g></g></svg>
